<?xml version="1.0" encoding="utf-8"?>
<!-- Generator: Adobe Illustrator 28.3.0, SVG Export Plug-In . SVG Version: 6.00 Build 0)  -->
<svg version="1.1" id="Ebene_1" xmlns="http://www.w3.org/2000/svg" xmlns:xlink="http://www.w3.org/1999/xlink" x="0px" y="0px"
	 viewBox="0 0 200 200" style="enable-background:new 0 0 200 200;" xml:space="preserve">
<style type="text/css">
	.st0{fill:#188A4C;}
	.st1{fill:#59B35F;}
</style>
<g>
	<circle class="st0" cx="100.16" cy="99.48" r="96.19"/>
	<g>
		<path class="st1" d="M34.77,147.91c0,1.76,1.43,3.19,5.42,3.19h119.63v-8.41H34.77V147.91z"/>
		<path class="st1" d="M145.67,63.21h-41.88c-1.76,0-3.19,1.43-3.19,3.19v1.31c0,1.76,1.43,3.19,3.19,3.19h41.88
			c1.76,0,3.19-1.43,3.19-3.19V66.4C148.86,64.64,147.43,63.21,145.67,63.21z"/>
		<path class="st1" d="M156.16,51.71H37.95c-1.43,0-3.16,1.43-3.16,3.19v35.96c0,3.52,2.88,6.38,6.4,6.38h4.49v13.58h1.45l0.64,6.06
			h-9.82c-1.76,0-3.19,1.43-3.19,3.19v15.57h125.05V54.9C159.81,53.14,158.82,51.71,156.16,51.71z M122.46,113.68
			c0,1.76-1.43,3.19-3.19,3.19h-69.8l0.64-6.06h1.77v-3.72h4.78v-2.55h-4.78v-7.31h4.87c3.52,0,6.37-2.85,6.37-6.38
			s2.85-6.38,6.37-6.38h46.59c3.52,0,6.37,2.85,6.37,6.38V113.68z M154.11,73.6c0,1.76-1.43,3.19-3.19,3.19H99.29
			c-1.76,0-3.19-1.43-3.19-3.19V61.32c0-1.76,1.43-3.19,3.19-3.19h51.62c1.76,0,3.19,1.43,3.19,3.19V73.6z"/>
		<path class="st1" d="M172.08,52.37c-2.29,0-4.14,1.86-4.14,4.14v43.3c0,2.29,1.85,4.14,4.14,4.14c2.29,0,4.14-1.85,4.14-4.14
			v-43.3C176.22,54.23,174.36,52.37,172.08,52.37z"/>
	</g>
</g>
</svg>
