<?xml version="1.0" encoding="utf-8"?>
<!-- Generator: Adobe Illustrator 28.3.0, SVG Export Plug-In . SVG Version: 6.00 Build 0)  -->
<svg version="1.1" id="Ebene_1" xmlns="http://www.w3.org/2000/svg" xmlns:xlink="http://www.w3.org/1999/xlink" x="0px" y="0px"
	 viewBox="0 0 240 240" style="enable-background:new 0 0 240 240;" xml:space="preserve">
<style type="text/css">
	.st0{fill:#59B35F;}
	.st1{fill:#008B78;}
</style>
<g>
	<g>
		<circle class="st0" cx="119.76" cy="119.98" r="119.3"/>
		<g>
			<path class="st1" d="M144.03,95.43c-17.85-17.72-30.88-17.33-49.69,1.49c-9.26,9.28-16.11,22.39-19.31,37
				c-3.04,14-2.49,25.13,1.46,29.09c3.95,3.93,15.08,4.49,29.09,1.43c14.6-3.19,27.73-10.04,36.99-19.3
				C161.38,126.33,161.79,113.31,144.03,95.43z"/>
			<path class="st1" d="M204.29,35.44c-46.7-46.69-122.41-46.68-169.1,0c-38.31,38.3-45.13,96.09-20.59,141.41l11.15-0.48l0.32,7.45
				l-7.18,0.29c4.6,7.23,9.99,14.1,16.29,20.4c46.69,46.68,122.4,46.69,169.1,0C250.99,157.83,250.99,82.13,204.29,35.44z
				 M31.53,183.57l-0.31-7.43l14.4-0.62l0.3,7.43L31.53,183.57z M52.38,180.64l-3.17-6.72l13.02-6.17l3.18,6.73L52.38,180.64z
				 M180.97,163.06l-20.1-20.1c-0.22-0.22-0.51-0.33-0.82-0.31c-0.31,0.02-0.59,0.18-0.78,0.42c-2.5,3.33-5.56,6.81-9.08,10.32
				c-6.48,6.48-13.75,11.25-22.93,15.69c-0.39,0.2-0.64,0.61-0.59,1.07l1.21,12.87c0.01,0.06,0.03,0.1,0.03,0.16
				c2.04,12-3.79,22.69-14.94,25.68c-0.16,0.04-0.35,0.01-0.49-0.07c-0.17-0.08-0.26-0.23-0.31-0.41l-8.23-30.68
				c-0.05-0.18-0.14-0.35-0.27-0.48l-0.14-0.14c-0.25-0.25-0.58-0.36-0.92-0.3c-10.99,1.77-25.78,2.15-33.9-5.98
				c-8.12-8.13-7.74-22.91-5.98-33.9c0.05-0.34-0.06-0.68-0.31-0.92l-0.14-0.15c-0.13-0.14-0.3-0.23-0.47-0.28l-30.7-8.23
				c-0.18-0.04-0.33-0.16-0.41-0.3c-0.09-0.16-0.1-0.33-0.07-0.5c2.99-11.15,14.06-16.75,25.68-14.94c0.06,0,0.11,0.02,0.17,0.04
				l12.88,1.2c0.43,0.03,0.86-0.2,1.05-0.6c4.47-9.17,9.23-16.44,15.71-22.91c3.52-3.52,7-6.57,10.32-9.08
				c0.24-0.19,0.4-0.47,0.42-0.77c0.02-0.31-0.1-0.62-0.31-0.83l-20.1-20.08c-0.25-0.26-0.24-0.69,0.01-0.94
				c8.22-8.21,21.59-8.22,29.81,0l12.9,12.9c0.2,0.2,0.49,0.31,0.78,0.29c7.78-0.2,14.98,2.1,23.03,8.07
				c0.42,0.32,1.02,0.27,1.37-0.09c3.73-3.72,5.19-6.28,6.74-8.98c1.64-2.89,3.34-5.85,8.06-10.57c5.18-5.18,15.2-4.6,20.47,0.66
				c5.25,5.25,5.83,15.28,0.65,20.45c-4.65,4.65-7.5,6.26-10.27,7.82c-2.6,1.47-5.29,3-9.27,6.98c-0.36,0.37-0.42,0.95-0.1,1.37
				c5.97,8.05,8.27,15.24,8.07,23.03c-0.02,0.29,0.1,0.58,0.31,0.79l12.9,12.89c8.21,8.22,8.21,21.58,0,29.8
				C181.64,163.3,181.21,163.32,180.97,163.06z"/>
		</g>
	</g>
</g>
</svg>
